<?xml version="1.0" encoding="UTF-8" standalone="no"?>
<!DOCTYPE svg PUBLIC "-//W3C//DTD SVG 1.1//EN" "http://www.w3.org/Graphics/SVG/1.1/DTD/svg11.dtd">
<svg version="1.1" xmlns="http://www.w3.org/2000/svg" xmlns:xlink="http://www.w3.org/1999/xlink" preserveAspectRatio="xMidYMid meet" viewBox="284.2526293138633 176.80564323331646 89.34210868062434 181.34286073479274" width="85.34" height="177.34"><defs><path d="M307.07 181.61C306.68 181.71 304.71 182.21 301.17 183.11C301.16 183.35 301.15 183.48 301.15 183.51C297.66 183.97 295.37 197.46 294.47 224.41C294.37 226.31 294.17 231.71 294.17 233.71C293.87 243.01 293.77 253.51 293.77 265.31C293.77 270.71 293.77 276.41 293.87 282.21C293.77 282.41 293.77 282.61 293.87 282.71C293.85 283.06 293.69 285.86 293.67 286.21C293.57 286.41 293.57 286.71 293.57 287.11C293.68 293.33 294.56 343.09 294.67 349.31C294.67 352.61 295.67 354.41 298.17 355.01C298.77 355.11 299.57 355.21 300.27 355.11C305.8 355.11 350.04 355.11 355.57 355.11C356.27 355.21 357.07 355.11 357.67 355.01C360.07 354.41 361.17 352.61 361.07 349.31C361.19 343.09 362.15 293.33 362.27 287.11C362.27 286.71 362.27 286.41 362.17 286.21C362.15 285.86 361.99 283.06 361.97 282.71C362.07 282.61 362.07 282.41 361.87 282.21C361.97 276.41 362.07 270.71 362.07 265.31C362.07 253.51 361.77 239.51 361.57 230.21C361.57 228.21 361.37 226.31 361.37 224.41C360.38 197.47 358.18 183.97 354.7 183.51C354.69 183.48 354.69 183.35 354.67 183.11C351.13 182.21 349.17 181.71 348.77 181.61C346.67 181.31 345.27 180.31 344.27 178.61C338.77 178.11 333.37 177.81 328.07 177.81C327.97 177.81 327.97 177.81 327.97 177.81C327.87 177.81 327.87 177.81 327.87 177.81C322.47 177.81 317.07 178.11 311.57 178.61C310.67 180.31 309.17 181.31 307.07 181.61Z" id="bdWq70e4b"></path><path d="M355.32 353.11L351.82 346.91L303.92 346.91L300.42 353.11L355.32 353.11Z" id="a1mWO9Th5g"></path><path d="M355.31 353.11L355.52 285.01L353.31 285.01L351.81 285.01L351.81 346.91L355.31 353.11Z" id="b5lQrHzCVf"></path><path d="M303.92 346.91L303.92 285.01L302.32 285.01L300.22 285.01L300.42 353.11L303.92 346.91Z" id="cqAFL7BBl"></path><path d="M297.17 283.8C298.03 283.9 299.03 283.97 300.22 284.01C300.25 282.57 300.42 275.41 300.72 262.51C300.84 247.93 300.9 239.82 300.92 238.2C300.02 236.41 299.32 234.41 299.02 232.01C298.62 229.7 298.62 227.01 298.72 224.11C298.76 223.51 298.96 220.55 299.32 215.21C300.4 196.19 301 185.62 301.12 183.51C297.62 183.91 295.32 197.41 294.42 224.41C294.32 226.31 294.22 228.21 294.22 230.21C293.92 239.51 293.72 253.51 293.72 265.31C293.72 270.71 293.72 276.41 293.82 282.21C293.72 282.41 293.72 282.61 293.82 282.71C293.72 282.91 293.52 286.71 293.52 287.11C293.63 293.33 294.51 343.09 294.62 349.31C294.62 352.61 295.62 354.41 298.12 355.01C298.72 355.11 299.52 355.21 300.22 355.11C299.12 354.81 298.32 354.01 297.92 352.71C296.54 330.73 296.33 306.44 297.17 283.8Z" id="eubyn5ZK"></path><path d="M356.72 232.01C356.32 234.41 355.72 236.41 354.72 238.2C354.74 239.82 354.84 247.93 355.02 262.51C355.26 275.41 355.39 282.57 355.42 284.01C356.56 283.98 357.55 283.91 358.4 283.81C359.26 306.52 359.19 330.63 357.71 352.71C357.31 354.01 356.61 354.81 355.52 355.11C356.21 355.21 357.02 355.11 357.62 355.01C360.02 354.41 361.12 352.61 361.02 349.31C361.14 343.09 362.09 293.33 362.21 287.11C362.21 286.78 362.02 283.93 361.89 282.73C361.9 282.72 361.91 282.71 361.91 282.71C362.02 282.61 362.02 282.41 361.81 282.21C361.91 276.41 362.01 270.71 362.01 265.31C362.01 253.75 361.82 243.46 361.63 234.3C361.63 234.3 361.63 234.3 361.63 234.3C361.63 232.3 361.31 226.31 361.31 224.41C360.31 197.41 358.11 183.91 354.61 183.51C354.73 185.62 355.33 196.19 356.41 215.21L356.92 224.11C357.05 227.84 356.98 230.47 356.72 232.01Z" id="b2to34rdf"></path><path d="M296.71 226.77L296.74 226.86L296.77 227L296.79 227.28L296.82 227.55L296.85 227.82L296.88 228.09L296.91 228.35L296.95 228.61L296.98 228.87L297.02 229.13L297.05 229.38L297.08 229.64L297.11 229.89L297.14 230.15L297.17 230.4L297.26 231.13L297.37 231.84L297.49 232.54L297.62 233.21L297.75 233.87L297.9 234.5L298.06 235.12L298.22 235.72L298.39 236.3L298.58 236.85L298.76 237.39L298.96 237.91L299.17 238.4L298.77 256L298.82 256.49L298.83 256.96L298.8 257.39L298.74 257.78L298.65 258.15L298.53 258.49L298.37 258.81L298.19 259.09L297.97 259.34L297.73 259.57L297.47 259.78L297.18 259.95L296.87 260.1L296.56 260.21L296.28 260.27L296.03 260.27L295.81 260.21L295.62 260.1L295.46 259.94L295.33 259.73L295.24 259.46L295.17 259.15L295.15 258.79L295.15 258.37L295.19 257.91L295.27 257.41L295.87 228.51L295.98 228.13L296.08 227.81L296.18 227.52L296.27 227.28L296.35 227.08L296.43 226.92L296.5 226.8L296.56 226.73L296.62 226.7L296.66 226.71L296.71 226.77ZM297.07 230.41L297.06 230.4L297.06 230.4L297.07 230.43L297.07 230.47L297.07 230.5L297.07 230.5L297.07 230.47L297.07 230.44L297.07 230.41Z" id="c1bnJixQvG"></path><path d="M304.17 236.01C310.77 234.01 318.67 233.2 327.87 233.31C327.87 233.31 327.87 233.31 327.97 233.31C327.97 233.31 327.97 233.31 328.07 233.31C337.17 233.2 345.07 234.01 351.67 236.01C354.27 237.31 355.77 235.91 356.27 232.01C356.37 231.41 356.47 230.7 356.47 230.01C356.52 229.42 356.92 224.7 356.97 224.11C356.87 224.11 356.87 224.11 356.87 224.11C349.87 219.81 340.27 217.61 328.07 217.41C327.97 217.41 327.97 217.41 327.97 217.41C327.87 217.41 327.87 217.41 327.87 217.41C315.67 217.61 305.87 219.81 298.87 224.11C298.87 224.11 298.87 224.11 298.77 224.11C298.82 224.7 299.22 229.42 299.27 230.01C299.37 230.71 299.37 231.41 299.57 232.01C300.07 235.91 301.67 237.31 304.17 236.01Z" id="bgBNef2CN"></path><path d="M303.97 285.01L351.87 285.01L353.37 285.01C354.63 284.41 355.33 284.07 355.47 284.01C354.77 282.71 348.17 282.41 335.57 283.41C335.55 283.41 335.39 283.41 335.37 283.41C335.27 283.41 335.27 283.41 335.27 283.41C335.17 283.41 334.87 283.41 334.67 283.41C334.66 283.41 334.62 283.41 334.56 283.41C326.64 283.41 322.25 283.41 321.37 283.41C321.27 283.41 321.27 283.41 321.17 283.41C320.97 283.41 320.67 283.41 320.57 283.41C320.57 283.41 320.57 283.41 320.57 283.41C320.47 283.41 320.37 283.41 320.27 283.41C307.67 282.41 301.07 282.71 300.27 284.01C300.41 284.07 301.11 284.41 302.37 285.01L303.97 285.01Z" id="b2Azl3ITt"></path><path d="M358.67 229.91C358.67 230.01 358.67 230.2 358.67 230.41C358.56 231.2 358.37 231.91 358.27 232.6C357.87 234.91 357.27 236.8 356.67 238.41C356.7 240.17 356.94 254.25 356.97 256.01C356.77 258.2 357.47 259.51 358.87 260.11C360.27 260.71 360.87 259.71 360.67 257.41C360.59 254.52 359.95 231.4 359.87 228.51C359.37 226.81 359.06 226.31 358.97 227.01C358.87 228.01 358.77 229.01 358.67 229.91Z" id="a2J1AJIB7A"></path><path d="M289.89 232.13C293.09 231.13 294.59 231.43 294.59 233.23C294.69 233.13 294.79 232.93 294.99 232.73C295.29 232.23 295.39 231.73 295.19 231.13C295.09 230.73 294.69 230.23 294.29 229.93C294.28 229.93 294.2 229.93 294.19 229.93C293.69 229.73 293.09 229.63 292.49 229.73C291.93 229.87 287.45 230.99 286.89 231.13C286.29 231.23 285.79 231.63 285.59 232.02C285.29 232.52 285.19 233.02 285.29 233.63C285.49 234.13 285.79 234.52 286.29 234.73C286.59 234.92 286.79 235.02 287.09 235.02C285.49 234.02 286.39 233.13 289.89 232.13Z" id="c1OmpoC0sE"></path><path d="M287.09 235.02C287.39 235.12 287.69 235.12 288.09 235.02C288.65 234.89 293.13 233.85 293.69 233.72C293.79 233.62 293.99 233.52 294.19 233.42C294.29 233.42 294.39 233.32 294.59 233.22C294.59 231.42 293.09 231.12 289.89 232.12C286.39 233.12 285.49 234.02 287.09 235.02Z" id="d1k0tcpzm3"></path><path d="M294.59 233.22C294.39 233.32 294.29 233.42 294.19 233.42C294.29 233.42 294.79 233.42 295.69 233.42C296.05 233.42 296.25 233.42 296.29 233.42C296.89 232.42 297.19 231.42 297.09 230.12C296.89 229.42 296.69 228.62 296.29 227.72C296.26 227.76 296.13 227.92 295.89 228.22C294.93 229.24 294.4 229.81 294.29 229.92C294.69 230.22 295.09 230.72 295.19 231.12C295.39 231.72 295.29 232.22 294.99 232.72C294.79 232.92 294.69 233.12 294.59 233.22Z" id="b3XbmlwIx"></path><path d="M360.19 233.42C361.09 233.42 361.59 233.42 361.69 233.42C361.59 233.42 361.39 233.32 361.29 233.22C361.09 233.12 360.99 232.92 360.79 232.72C360.59 232.22 360.39 231.72 360.69 231.12C360.79 230.72 361.09 230.22 361.59 229.92C361.48 229.81 360.91 229.24 359.89 228.22C359.65 227.92 359.52 227.76 359.49 227.72C359.19 228.42 358.99 229.02 358.89 229.62C358.79 229.72 358.79 229.92 358.79 230.12C358.79 230.12 358.79 230.12 358.79 230.12C358.69 230.62 358.69 231.02 358.79 231.42C358.89 232.12 359.09 232.72 359.49 233.42C359.58 233.42 359.82 233.42 360.19 233.42Z" id="a7F9iPVix"></path><path d="M361.29 233.22C361.29 231.42 362.79 231.12 365.89 232.12C369.39 233.12 370.29 234.02 368.69 235.02C368.99 235.02 369.29 234.92 369.39 234.72C369.89 234.52 370.29 234.12 370.49 233.62C370.69 233.02 370.59 232.52 370.29 232.02C369.89 231.62 369.49 231.22 368.89 231.12C368.33 230.98 363.85 229.86 363.29 229.72C362.69 229.62 362.19 229.72 361.69 229.92C361.68 229.92 361.6 229.92 361.59 229.92C361.09 230.22 360.79 230.72 360.69 231.12C360.39 231.72 360.59 232.22 360.79 232.72C360.99 232.92 361.09 233.12 361.29 233.22Z" id="kqhvrfytI"></path><path d="M367.69 235.02C368.09 235.13 368.39 235.13 368.69 235.02C370.29 234.02 369.39 233.13 365.89 232.13C362.79 231.13 361.29 231.43 361.29 233.23C361.39 233.33 361.59 233.43 361.69 233.43C361.79 233.52 362.09 233.62 362.19 233.72C363.29 233.98 367.14 234.89 367.69 235.02Z" id="b2jtpYidFS"></path><path d="M293.67 286.19C293.97 285.19 295.17 284.69 297.17 284.69C298.07 284.69 299.07 284.79 300.27 284.99C300.41 284.99 301.11 284.99 302.37 284.99C301.11 284.39 300.41 284.05 300.27 283.99C296.37 283.89 294.27 283.39 293.87 282.69C293.83 283.39 293.69 285.84 293.67 286.19Z" id="agePU4IRH"></path><path d="M358.67 284.69C360.67 284.69 361.77 285.19 362.17 286.19C362.15 285.84 362 283.04 361.98 282.69C361.58 283.39 359.37 283.89 355.48 283.99C355.34 284.05 354.63 284.39 353.37 284.99L355.57 284.99C357.04 284.79 358.07 284.69 358.67 284.69Z" id="bbo17orP8"></path><path d="M342.24 243.54L342.69 243.6L343.11 243.69L343.51 243.81L343.88 243.94L344.22 244.11L344.54 244.3L344.84 244.51L345.11 244.75L345.36 245.01L345.58 245.3L345.78 245.62L345.95 245.95L346.1 246.32L346.22 246.7L346.32 247.11L346.4 247.55L346.45 248.01L346.47 248.49L346.47 256.49L346.45 256.97L346.4 257.43L346.32 257.87L346.22 258.28L346.1 258.66L345.95 259.02L345.78 259.36L345.58 259.67L345.36 259.96L345.11 260.23L344.84 260.47L344.54 260.68L344.22 260.87L343.88 261.03L343.51 261.17L343.11 261.29L342.69 261.37L342.24 261.44L341.77 261.48L341.27 261.49L314.47 261.49L313.98 261.48L313.51 261.44L313.06 261.37L312.65 261.29L312.26 261.17L311.89 261.03L311.55 260.87L311.24 260.68L310.95 260.47L310.69 260.23L310.45 259.96L310.23 259.67L310.04 259.36L309.88 259.02L309.74 258.66L309.62 258.28L309.52 257.87L309.45 257.43L309.4 256.97L309.37 256.49L309.37 248.49L309.4 248.01L309.45 247.55L309.52 247.11L309.62 246.7L309.73 246.32L309.88 245.95L310.04 245.62L310.23 245.3L310.45 245.01L310.69 244.75L310.95 244.51L311.24 244.3L311.55 244.11L311.89 243.94L312.26 243.81L312.65 243.69L313.06 243.6L313.51 243.54L313.98 243.5L314.47 243.49L341.27 243.49L341.77 243.5L342.24 243.54ZM314.13 246.4L313.81 246.44L313.49 246.5L313.18 246.59L312.88 246.7L312.59 246.84L312.31 247L312.04 247.19L311.79 247.41L311.54 247.65L311.31 247.92L311.08 248.21L310.87 248.54L310.67 248.89L310.85 248.7L311.05 248.54L311.27 248.39L311.5 248.26L311.74 248.14L312 248.04L312.27 247.95L312.56 247.88L312.85 247.82L313.16 247.77L313.48 247.73L313.8 247.71L314.13 247.69L314.47 247.69L341.27 247.69L341.63 247.69L341.98 247.71L342.31 247.73L342.63 247.77L342.94 247.82L343.23 247.88L343.51 247.95L343.78 248.04L344.03 248.14L344.27 248.26L344.49 248.39L344.7 248.54L344.89 248.7L345.07 248.89L344.93 248.65L344.77 248.42L344.6 248.2L344.4 247.99L344.17 247.79L343.93 247.6L343.67 247.41L343.39 247.24L343.09 247.07L342.77 246.92L342.42 246.77L342.06 246.63L341.68 246.51L341.27 246.39L314.47 246.39L314.13 246.4Z" id="b3WMadB7sg"></path><path d="M341.27 246.39C338.59 246.39 317.15 246.39 314.47 246.39C312.87 246.39 311.57 247.19 310.67 248.89C311.47 247.99 312.87 247.69 314.47 247.69C317.15 247.69 338.59 247.69 341.27 247.69C342.97 247.69 344.27 247.99 345.07 248.89C344.17 247.19 342.87 246.39 341.27 246.39Z" id="gASQ4EfuY"></path><path d="M300.22 355.15L300.22 355.15L300.42 353.15L303.92 346.95L351.81 346.95L355.31 353.15L355.52 355.15L355.52 355.15" id="ahdCniwIn"></path><path d="M298.72 224.61C298.62 227.51 298.62 230.21 299.02 232.51C299.32 234.91 300.02 236.91 300.92 238.7C300.9 241.13 300.74 260.58 300.72 263.01C298.42 262.81 296.12 263.7 293.72 265.81" id="b6ppTqgk7"></path><path d="M298.72 224.61C298.72 224.61 298.72 224.61 298.72 224.61C297.22 224.01 295.82 224.11 294.42 224.91" id="a6wgq3fR5H"></path><path d="M357.28 223.08C357.38 225.98 357.38 228.68 356.98 230.98C356.68 233.38 355.98 235.38 355.08 237.18C355.1 239.61 355.26 259.05 355.28 261.48C357.58 261.28 359.88 262.18 362.28 264.28" id="hdwUdkqz1"></path><path d="M357.28 223.08C357.28 223.08 357.28 223.08 357.28 223.08C358.78 222.48 360.18 222.58 361.58 223.38" id="b4kk6IBSQO"></path><path d="M356.48 215.16C347.27 213.46 337.77 212.56 328.08 212.66C327.98 212.66 327.98 212.66 327.98 212.66C327.88 212.66 327.88 212.66 327.88 212.66C318.18 212.56 308.68 213.46 299.38 215.16" id="cfKZk7aCS"></path><path d="M301.17 183.06L301.17 183.46L299.37 215.16" id="a1LcnDOu6"></path><path d="M354.67 183.06L354.67 183.46L356.48 215.16" id="jAn391kcA"></path><path d="M335.48 283.19C335.48 283.19 335.48 283.19 335.48 283.19C335.48 282.68 335.06 282.27 334.56 282.27C333.23 282.27 322.62 282.27 321.29 282.27C320.78 282.27 320.37 282.68 320.37 283.19C320.37 283.19 320.37 283.19 320.37 283.19C320.37 283.69 320.78 284.11 321.29 284.11C322.17 284.11 326.6 284.11 334.56 284.11C335.17 283.83 335.48 283.53 335.48 283.19Z" id="c3e8MSYAMK"></path><path d="M334.76 283.57C334.76 283.57 334.76 283.57 334.76 283.57C334.76 283.42 334.39 283.3 333.93 283.3C332.73 283.3 323.12 283.3 321.92 283.3C321.46 283.3 321.09 283.42 321.09 283.57C321.09 283.57 321.09 283.57 321.09 283.57C321.09 283.72 321.46 283.84 321.92 283.84C322.72 283.84 326.72 283.84 333.93 283.84C334.48 283.76 334.76 283.67 334.76 283.57Z" id="eQj9UkHy9"></path></defs><g><g><use xlink:href="#bdWq70e4b" opacity="1" fill="#ec2127" fill-opacity="1"></use><g><use xlink:href="#bdWq70e4b" opacity="1" fill-opacity="0" stroke="#000000" stroke-width="1" stroke-opacity="0"></use></g></g><g><use xlink:href="#a1mWO9Th5g" opacity="1" fill="#81272d" fill-opacity="1"></use><g><use xlink:href="#a1mWO9Th5g" opacity="1" fill-opacity="0" stroke="#000000" stroke-width="1" stroke-opacity="0"></use></g></g><g><use xlink:href="#b5lQrHzCVf" opacity="1" fill="#81272d" fill-opacity="1"></use><g><use xlink:href="#b5lQrHzCVf" opacity="1" fill-opacity="0" stroke="#000000" stroke-width="1" stroke-opacity="0"></use></g></g><g><use xlink:href="#cqAFL7BBl" opacity="1" fill="#81272d" fill-opacity="1"></use><g><use xlink:href="#cqAFL7BBl" opacity="1" fill-opacity="0" stroke="#000000" stroke-width="1" stroke-opacity="0"></use></g></g><g><use xlink:href="#eubyn5ZK" opacity="1" fill="#81272d" fill-opacity="1"></use><g><use xlink:href="#eubyn5ZK" opacity="1" fill-opacity="0" stroke="#000000" stroke-width="1" stroke-opacity="0"></use></g></g><g><use xlink:href="#b2to34rdf" opacity="1" fill="#81272d" fill-opacity="1"></use><g><use xlink:href="#b2to34rdf" opacity="1" fill-opacity="0" stroke="#000000" stroke-width="1" stroke-opacity="0"></use></g></g><g><use xlink:href="#c1bnJixQvG" opacity="1" fill="#333333" fill-opacity="1"></use><g><use xlink:href="#c1bnJixQvG" opacity="1" fill-opacity="0" stroke="#000000" stroke-width="1" stroke-opacity="0"></use></g></g><g><use xlink:href="#bgBNef2CN" opacity="1" fill="#333333" fill-opacity="1"></use><g><use xlink:href="#bgBNef2CN" opacity="1" fill-opacity="0" stroke="#000000" stroke-width="1" stroke-opacity="0"></use></g></g><g><use xlink:href="#b2Azl3ITt" opacity="1" fill="#333333" fill-opacity="1"></use><g><use xlink:href="#b2Azl3ITt" opacity="1" fill-opacity="0" stroke="#000000" stroke-width="1" stroke-opacity="0"></use></g></g><g><use xlink:href="#a2J1AJIB7A" opacity="1" fill="#333333" fill-opacity="1"></use><g><use xlink:href="#a2J1AJIB7A" opacity="1" fill-opacity="0" stroke="#000000" stroke-width="1" stroke-opacity="0"></use></g></g><g><use xlink:href="#c1OmpoC0sE" opacity="1" fill="#333333" fill-opacity="1"></use><g><use xlink:href="#c1OmpoC0sE" opacity="1" fill-opacity="0" stroke="#000000" stroke-width="1" stroke-opacity="0"></use></g></g><g><use xlink:href="#d1k0tcpzm3" opacity="1" fill="#666666" fill-opacity="1"></use><g><use xlink:href="#d1k0tcpzm3" opacity="1" fill-opacity="0" stroke="#000000" stroke-width="1" stroke-opacity="0"></use></g></g><g><use xlink:href="#b3XbmlwIx" opacity="1" fill="#000000" fill-opacity="1"></use><g><use xlink:href="#b3XbmlwIx" opacity="1" fill-opacity="0" stroke="#000000" stroke-width="1" stroke-opacity="0"></use></g></g><g><use xlink:href="#a7F9iPVix" opacity="1" fill="#000000" fill-opacity="1"></use><g><use xlink:href="#a7F9iPVix" opacity="1" fill-opacity="0" stroke="#000000" stroke-width="1" stroke-opacity="0"></use></g></g><g><use xlink:href="#kqhvrfytI" opacity="1" fill="#333333" fill-opacity="1"></use><g><use xlink:href="#kqhvrfytI" opacity="1" fill-opacity="0" stroke="#000000" stroke-width="1" stroke-opacity="0"></use></g></g><g><use xlink:href="#b2jtpYidFS" opacity="1" fill="#666666" fill-opacity="1"></use><g><use xlink:href="#b2jtpYidFS" opacity="1" fill-opacity="0" stroke="#000000" stroke-width="1" stroke-opacity="0"></use></g></g><g><use xlink:href="#agePU4IRH" opacity="1" fill="#000000" fill-opacity="1"></use><g><use xlink:href="#agePU4IRH" opacity="1" fill-opacity="0" stroke="#000000" stroke-width="1" stroke-opacity="0"></use></g></g><g><use xlink:href="#bbo17orP8" opacity="1" fill="#000000" fill-opacity="1"></use><g><use xlink:href="#bbo17orP8" opacity="1" fill-opacity="0" stroke="#000000" stroke-width="1" stroke-opacity="0"></use></g></g><g><use xlink:href="#b3WMadB7sg" opacity="1" fill="#666666" fill-opacity="1"></use><g><use xlink:href="#b3WMadB7sg" opacity="1" fill-opacity="0" stroke="#000000" stroke-width="1" stroke-opacity="0"></use></g></g><g><use xlink:href="#gASQ4EfuY" opacity="1" fill="#333333" fill-opacity="1"></use><g><use xlink:href="#gASQ4EfuY" opacity="1" fill-opacity="0" stroke="#000000" stroke-width="1" stroke-opacity="0"></use></g></g><g><use xlink:href="#ahdCniwIn" opacity="1" fill="#000000" fill-opacity="0"></use><g><use xlink:href="#ahdCniwIn" opacity="1" fill-opacity="0" stroke="#333333" stroke-width="0.25" stroke-opacity="1"></use></g></g><g><use xlink:href="#b6ppTqgk7" opacity="1" fill="#000000" fill-opacity="0"></use><g><use xlink:href="#b6ppTqgk7" opacity="1" fill-opacity="0" stroke="#333333" stroke-width="0.25" stroke-opacity="1"></use></g></g><g><use xlink:href="#a6wgq3fR5H" opacity="1" fill="#000000" fill-opacity="0"></use><g><use xlink:href="#a6wgq3fR5H" opacity="1" fill-opacity="0" stroke="#333333" stroke-width="0.25" stroke-opacity="1"></use></g></g><g><use xlink:href="#hdwUdkqz1" opacity="1" fill="#000000" fill-opacity="0"></use><g><use xlink:href="#hdwUdkqz1" opacity="1" fill-opacity="0" stroke="#333333" stroke-width="0.25" stroke-opacity="1"></use></g></g><g><use xlink:href="#b4kk6IBSQO" opacity="1" fill="#000000" fill-opacity="0"></use><g><use xlink:href="#b4kk6IBSQO" opacity="1" fill-opacity="0" stroke="#333333" stroke-width="0.25" stroke-opacity="1"></use></g></g><g><use xlink:href="#cfKZk7aCS" opacity="1" fill="#000000" fill-opacity="0"></use><g><use xlink:href="#cfKZk7aCS" opacity="1" fill-opacity="0" stroke="#333333" stroke-width="0.25" stroke-opacity="1"></use></g></g><g><use xlink:href="#a1LcnDOu6" opacity="1" fill="#000000" fill-opacity="0"></use><g><use xlink:href="#a1LcnDOu6" opacity="1" fill-opacity="0" stroke="#333333" stroke-width="0.25" stroke-opacity="1"></use></g></g><g><use xlink:href="#jAn391kcA" opacity="1" fill="#000000" fill-opacity="0"></use><g><use xlink:href="#jAn391kcA" opacity="1" fill-opacity="0" stroke="#333333" stroke-width="0.25" stroke-opacity="1"></use></g></g><g><use xlink:href="#c3e8MSYAMK" opacity="1" fill="#c1272d" fill-opacity="1"></use><g><use xlink:href="#c3e8MSYAMK" opacity="1" fill-opacity="0" stroke="#81272d" stroke-width="0.25" stroke-opacity="1"></use></g></g><g><use xlink:href="#eQj9UkHy9" opacity="1" fill="#ffb8ba" fill-opacity="1"></use><g><use xlink:href="#eQj9UkHy9" opacity="1" fill-opacity="0" stroke="#000000" stroke-width="1" stroke-opacity="0"></use></g></g></g></svg>